<?xml version="1.0" encoding="UTF-8" standalone="no"?>
<svg width="508px" height="75px" viewBox="0 0 508 75" version="1.1" xmlns="http://www.w3.org/2000/svg" xmlns:xlink="http://www.w3.org/1999/xlink" xmlns:sketch="http://www.bohemiancoding.com/sketch/ns">
    <!-- Generator: Sketch 3.4.2 (15857) - http://www.bohemiancoding.com/sketch -->
    <title>black_on_white_short</title>
    <desc>Created with Sketch.</desc>
    <defs>
        <path id="path-1" d="M0.06,0.435 L507.352,0.435 L507.352,75 L0.06,75"></path>
    </defs>
    <g id="Page-1" stroke="none" stroke-width="1" fill="none" fill-rule="evenodd" sketch:type="MSPage">
        <g id="black_on_white_short" sketch:type="MSLayerGroup">
            <g id="Group-4">
                <mask id="mask-2" sketch:name="Clip 2" fill="white">
                    <use xlink:href="#path-1"></use>
                </mask>
                <g id="Clip-2"></g>
                <path d="M494.249,38.673 C493.625,37.899 493.065,37.06 492.548,36.178 C491.221,34.935 489.709,33.877 487.899,33.117 C487.471,34.679 488.008,35.936 488.239,37.198 C488.354,37.826 489.154,41.111 489.26,41.507 C489.452,42.231 498.757,65.119 499.124,66.679 C499.48,67.154 499.925,67.541 500.372,67.926 C502.164,68.137 504.302,68.002 506.268,68.039 C507.043,68.498 507.939,69.501 506.835,70.194 C506.451,70.435 503.298,71.11 502.866,71.214 C501.851,71.46 499.396,72.634 498.558,73.028 C497.484,73.534 496.994,73.342 496.063,72.575 C495.545,71.831 495.5,70.903 495.156,70.08 C494.961,69.614 494.644,69.186 494.362,68.72 C493.612,67.479 492.854,66.014 492.095,64.638 C491.071,62.786 486.634,54.792 486.539,54.547 C486.081,54.097 484.527,51.665 484.157,51.031 C483.799,50.417 483.641,49.485 482.797,49.331 C482.147,49.768 481.534,52.746 481.437,52.959 C481.209,53.456 479.676,56.271 479.282,56.814 C479.008,57.191 477.748,58.693 477.468,59.082 C476.907,59.859 473.629,64.576 472.365,65.999 C471.894,67.513 471.219,67.83 471.345,69.173 C471.55,71.362 474.907,71.936 474.18,73.936 C473.359,74.321 471.473,74.755 470.438,74.389 C469.513,74.062 468.333,72.264 467.604,71.441 C466.838,70.577 465.16,69.451 464.995,68.38 C464.809,67.164 465.722,66.386 466.242,65.545 C466.792,64.657 472.132,54.491 472.252,54.206 C472.367,53.933 473.013,52.766 473.159,52.393 C473.638,51.175 473.931,49.309 474.066,47.856 C474.136,47.109 474.456,46.293 474.52,45.589 C474.597,44.737 474.957,41.96 475.087,41.394 C475.347,40.26 475.292,38.889 474.974,37.766 C474.113,38.725 474.819,40.028 474.633,41.167 C474.527,41.813 473.728,42.911 473.159,43.208 C471.847,43.893 469.66,43.652 469.19,42.414 C468.988,41.4 469.338,40.526 469.645,39.807 C469.807,39.424 471.066,37.339 471.345,36.518 C471.608,35.739 471.436,34.849 471.571,34.024 C471.654,33.52 471.903,32.953 472.025,32.437 C472.169,31.824 472.12,31.183 472.252,30.622 C472.34,30.247 472.905,28.457 473.046,28.014 C473.16,27.653 474.196,25.094 474.293,24.839 C474.421,24.504 474.966,23.225 475.087,22.912 C475.238,22.52 476.09,20.139 476.221,19.851 C476.521,19.187 480.188,12.026 480.529,11.573 C481.526,8.166 479.726,3.249 482.116,1.369 C482.961,0.705 484.038,0.329 485.972,0.461 C487.312,1.125 488.557,1.883 489.26,3.183 C489.729,6.563 489.185,9.581 487.332,11.233 C487.064,11.381 486.549,11.281 486.312,11.46 C486.143,12.089 485.4,12.906 485.404,13.728 C485.406,14.108 486.877,18.122 486.992,18.49 C487.155,19.01 487.489,19.42 487.559,19.851 C487.714,20.814 487.559,21.959 487.559,23.025 C487.559,24.532 487.558,25.982 488.126,26.88 C489.231,28.629 491.21,30.483 492.321,31.756 C493.019,31.999 493.819,32.642 494.815,33.23 C495.055,33.371 495.854,33.893 496.063,34.024 C496.523,34.313 496.997,34.358 497.311,34.704 C498.109,35.587 498.256,37.188 497.311,37.992 C496.278,38.208 495.661,38.838 494.249,38.673" id="Fill-1" fill="#FFFFFF" sketch:type="MSShapeGroup" mask="url(#mask-2)"></path>
                <path d="M402.859,68.833 C401.637,68.673 402.225,71.812 402.633,72.462 C402.916,72.557 403.24,72.61 403.653,72.575 C403.808,71.334 403.174,69.977 402.859,68.833 L402.859,68.833 Z M349.908,68.039 L349.568,68.039 C348.982,68.861 350.495,68.861 349.908,68.039 L349.908,68.039 Z M341.858,63.391 C341.556,64.751 340.813,65.671 340.951,67.473 C341.575,68.171 341.903,69.166 342.879,69.514 C343.3,69.205 343.585,67.46 343.673,66.905 C343.108,65.769 342.926,64.251 342.085,63.391 L341.858,63.391 L341.858,63.391 Z M368.391,62.37 L368.051,62.37 C366.716,63.87 365.391,65.379 364.082,66.905 C364.255,67.641 364.797,68.005 365.103,68.606 C367.18,68.974 370.106,68.879 371.792,68.493 C371.709,67.669 369.108,62.888 368.391,62.37 L368.391,62.37 Z M355.805,59.65 C355,59.616 354.672,60.992 354.104,61.463 C354.058,64.155 354.021,66.837 354.897,68.606 C356.15,68.554 357.596,68.874 357.732,70.08 C357.807,70.738 357.313,70.881 357.278,71.668 C357.949,71.773 358.851,71.989 359.319,71.668 C359.559,71.002 358.915,70.472 358.64,69.967 C358.498,68.514 356.725,66.941 356.938,65.432 C357.036,64.742 357.648,64.526 357.959,63.845 C357.878,62.565 356.428,59.674 355.805,59.65 L355.805,59.65 Z M347.414,61.123 C348.681,60.018 346.367,56.803 345.827,56.701 C345.506,57.055 346.91,61.061 347.414,61.123 L347.414,61.123 Z M373.152,57.154 C373.141,57.391 373.256,57.926 373.38,58.175 C373.493,58.404 374.181,59.203 374.4,59.195 C374.724,58.184 374.864,56.347 374.514,55.34 C373.916,55.472 373.176,56.696 373.152,57.154 L373.152,57.154 Z M414.198,55.227 C413.547,55.86 412.854,56.453 412.044,56.928 C411.194,58.27 409.887,59.154 409.209,60.669 C408.647,61.152 408.239,61.712 407.622,62.37 C407.151,62.872 406.209,63.546 406.148,64.185 C406.103,64.655 406.531,65.271 406.828,65.772 C407.501,66.907 408.207,67.53 409.776,67.586 C411.004,67.63 412.606,67.369 413.519,66.905 C413.273,65.583 413.663,64.526 413.745,63.504 C413.841,62.302 413.66,61.047 413.745,59.876 C413.878,58.04 414.351,56.467 414.425,55.227 L414.198,55.227 L414.198,55.227 Z M361.36,49.558 L361.021,49.558 C360.283,50.408 360.166,51.878 359.773,53.072 C359.886,53.641 361.66,58.291 362.835,59.65 C363.681,58.529 364.5,57.383 365.216,56.134 C363.849,54.024 362.397,51.998 361.36,49.558 L361.36,49.558 Z M369.864,47.856 C370.049,48.339 369.989,49.131 370.545,49.331 C371.067,48.727 371.367,46.481 371.452,46.156 C371.752,45.004 371.847,43.68 371.565,42.641 C370.837,42.805 370.897,43.436 370.205,43.548 C369.256,43.702 368.826,42.807 367.938,42.641 C367.521,43.536 369.532,46.986 369.864,47.856 L369.864,47.856 Z M365.896,33.797 C365.89,33.942 365.751,33.954 365.782,34.137 C366.001,34.46 365.851,35.122 365.896,35.611 C365.98,36.506 366.133,40.044 367.03,40.033 C367.911,40.022 367.793,37.372 367.597,35.951 C367.468,35.017 367.039,34.343 366.689,33.797 L365.896,33.797 L365.896,33.797 Z M382.45,28.695 C382.252,29.904 382.344,31.333 382.224,32.776 C382.135,33.844 381.736,34.863 381.656,35.838 C381.374,39.287 381.543,43.066 381.543,46.496 C381.543,47.614 381.674,48.737 381.884,49.784 C382.489,49.454 382.289,48.683 382.337,48.197 C382.403,47.528 384.966,33.394 384.831,32.55 C384.726,31.886 384.135,31.352 383.811,30.735 C383.4,29.955 383.195,29.278 383.018,28.468 C382.872,28.461 382.86,28.322 382.677,28.354 C382.65,28.516 382.49,28.546 382.45,28.695 L382.45,28.695 Z M345.827,10.553 C345.717,11.473 344.408,11.628 343.899,12.367 C343.438,13.037 343.247,14.408 343.559,15.315 C344.248,15.396 344.818,14.554 345.26,13.955 C346.006,12.942 346.768,11.851 346.28,10.553 L345.827,10.553 L345.827,10.553 Z M166.564,29.035 C166.051,29.627 165.584,30.921 164.863,31.643 C163.786,32.72 159.342,34.2 158.967,34.25 C157.985,34.383 156.653,34.25 155.452,34.25 C153.094,34.25 151.325,34.483 150.803,32.89 C151.036,28.899 151.326,24.101 151.824,20.531 C152.282,17.239 151.639,14.385 154.091,13.388 C158.686,13.555 164.993,12.945 168.491,13.955 C169.815,14.337 170.242,14.383 171.099,14.975 C172.162,15.708 173.132,16.892 173.48,18.263 C173.839,19.674 173.813,22.798 174.954,22.798 C176.659,22.898 176.313,20.14 176.542,18.717 C176.572,16.729 176.594,14.635 176.594,13.274 C176.594,12.358 176.943,10.425 176.878,9.642 C176.813,8.858 175.549,9.085 174.501,9.079 C170.692,9.059 140.052,9.267 137.537,9.306 C135.583,9.335 132.252,8.981 132.095,10.326 C131.958,11.497 133.552,11.873 134.589,12.027 C135.603,12.178 136.409,12.533 137.083,12.707 C137.399,13.147 137.812,13.491 138.217,13.841 C138.658,15.206 139.379,16.392 139.464,17.923 C139.508,18.708 135.437,61.025 135.156,61.576 C134.562,62.742 133.311,63.356 132.435,64.185 C131.468,64.685 128.497,65.111 128.92,67.019 C129.152,68.067 131.464,67.881 132.548,67.926 C134.234,67.997 167.216,67.625 167.811,67.473 C169.21,67.113 169.753,67.086 170.646,66.452 C171.181,66.071 171.834,65.377 172.46,64.751 C175.628,60.39 177.165,56.356 177.165,56.356 C177.165,56.356 177.875,51.483 176.882,51.874 C176.25,52.796 174.076,54.972 173.82,55.227 C173.565,55.481 169.822,59.375 166.904,60.783 C166.272,61.088 165.59,61.53 164.863,61.804 C164.498,61.941 158.716,63.33 157.946,63.391 C155.858,63.556 153.619,63.27 151.144,63.391 C150.592,62.937 149.659,62.77 149.216,62.257 C148.152,61.027 147.902,58.015 148.309,55.681 C148.398,55.168 149.556,41.691 149.783,40.601 C150.471,39.709 150.958,39.057 151.937,38.56 C153.073,37.982 154.446,38.109 156.246,38.105 C158.178,38.103 159.227,38.122 160.441,38.56 C161.573,38.966 161.928,39.151 162.708,39.693 C163.833,40.473 164.695,41.528 165.09,42.755 C165.451,43.876 165.318,45.296 166.45,46.27 C167.917,44.692 168.178,37.118 168.167,35.983 C168,34.858 169.167,28.692 168.604,26.88 C167.436,27.11 166.984,28.057 166.564,29.035 L166.564,29.035 Z M73.814,10.666 C73.368,9.875 72.813,8.205 72.113,9.192 C70.82,11.017 67.784,16.908 68.666,15.108 C67.717,16.588 42.294,60.45 41.386,61.804 C40.409,63.258 39.41,64.029 38.098,64.979 C37.068,65.13 34.857,66.448 35.49,67.586 C35.948,68.409 38.914,68.039 40.479,68.039 L51.477,68.039 C53.146,68.039 55.998,68.381 56.239,67.246 C56.46,66.21 55.697,66.008 55.219,65.772 C53.523,64.936 51.663,64.78 50.117,64.071 C49.247,63.098 47.87,62.589 47.622,61.236 C47.413,60.094 50.003,53.072 50.003,53.072 C50.003,53.072 51.842,49.57 54.085,48.764 C56.368,47.943 69.449,48.249 71.546,48.424 C73.845,48.615 75.266,49.003 76.082,50.125 C76.393,51.326 77.174,52.541 77.556,53.979 C77.684,54.464 78.14,56.461 78.236,56.928 C78.81,59.717 78.597,62.43 77.329,63.958 C76.711,64.702 75.915,64.987 75.061,65.318 C73.769,65.819 72.347,65.729 72.34,67.473 C73.031,68.19 74.133,68.025 75.061,68.039 C78.515,68.092 81.81,68.039 85.266,68.039 C96.646,68.039 107.74,68.447 118.942,67.926 C120.724,67.843 123.743,67.984 122.684,65.318 C122.227,64.774 121.204,65.048 120.529,64.864 C120.313,64.807 120.121,64.539 119.849,64.411 C119.576,64.283 119.203,64.312 118.942,64.185 C117.698,63.576 116.464,62.437 115.994,61.35 C115.713,60.702 115.341,59.295 115.313,58.401 C115.276,57.182 116.76,40.646 117.014,38.786 C117.077,38.329 118.781,18.771 119.055,17.243 C119.106,16.956 120.002,14.487 120.416,13.955 C120.93,13.292 122.301,12.186 123.023,11.914 C123.365,11.785 126.245,10.912 126.198,9.986 C124.887,8.875 122.763,9.306 120.869,9.306 L114.747,9.306 C110.537,9.306 106.139,9.024 102.614,9.306 C101.394,9.403 99.893,9.563 99.212,10.439 C99.27,12.115 100.953,11.806 102.161,12.14 C102.971,12.365 104.792,13.454 104.995,13.614 C105.422,13.953 105.697,14.456 106.016,14.748 C106.982,16.83 106.899,19.521 106.583,23.139 C106.488,24.224 103.039,59.78 102.841,60.442 C102.756,60.728 102.1,62.182 101.934,62.483 C101.36,63.525 100.155,64.412 99.326,65.092 C97.867,65.595 96.782,65.602 95.585,64.979 C94.818,64.422 94.262,63.655 93.544,63.051 C91.324,58.584 73.918,10.85 73.814,10.666 L73.814,10.666 Z M267.137,17.81 C267.137,17.81 266.854,22.867 268.838,22.685 C269.712,22.605 269.99,21.111 270.085,20.19 C270.318,17.924 270.351,14.413 270.425,12.594 C270.5,10.775 271.244,10.643 270.879,9.759 C270.645,9.193 269.646,8.86 268.725,8.852 C265.269,8.821 261.252,8.965 257.386,8.965 L229.833,8.965 C227.864,8.965 225.519,8.744 225.751,10.439 C225.927,11.721 228.718,11.946 230.06,12.027 C231.583,12.525 231.422,13.235 231.987,13.955 C232.906,16.37 233.426,19.226 233.121,22.005 C233.067,22.496 229.606,58.634 229.606,59.082 C229.606,59.53 228.813,61.576 228.813,61.576 C228.813,61.576 226.043,63.861 225.638,64.071 C224.353,64.735 222.525,64.941 222.69,66.905 C223.737,67.89 225.25,67.47 226.658,67.473 C232.047,67.484 236.369,67.542 242.079,67.473 C245.076,67.437 248.376,67.359 251.603,67.359 C255.054,67.359 258.529,67.65 261.354,67.359 C262.761,67.215 263.448,66.616 264.416,65.885 C265.701,64.913 267.995,62.841 268.58,61.381 C269.166,59.921 270.138,57.543 270.425,56.588 C270.832,55.237 271.626,53.685 270.765,52.052 C269.76,52.007 269.085,52.814 268.611,53.413 C268.081,54.081 267.675,54.938 267.137,55.567 C266.422,56.404 265.349,57.332 264.302,58.175 C262.05,59.989 259.371,61.251 256.365,62.144 C255.91,62.278 251.019,63.214 250.469,63.277 C248.162,63.545 244.414,63.397 243.666,62.71 C242.918,62.022 242.918,62.022 242.646,61.576 C241.286,58.474 241.866,54.975 242.083,51.825 C242.193,50.233 243.343,41.451 243.439,40.26 C244.53,37.96 246.509,37.879 249.902,37.879 C251.11,37.879 253.094,37.842 254.098,38.105 C254.891,38.314 256.65,39.408 257.046,39.807 C257.499,40.263 258.528,42.027 258.747,42.755 C259.083,43.873 258.937,45.906 260.334,45.816 C261.053,45.77 261.575,44.359 261.694,43.548 C261.899,42.155 261.808,40.617 261.808,39.126 C261.808,37.744 261.93,36.347 262.148,34.817 C262.251,34.093 262.56,32.384 262.602,30.622 C262.648,28.685 263.039,26.868 262.148,26.654 C261.392,26.472 261.012,27.399 260.674,28.014 C259.605,29.96 258.192,31.78 256.819,32.663 C254.265,33.484 249.777,35.129 246.161,34.024 C245.303,33.762 244.555,33.234 244.347,32.437 C244.133,31.619 244.47,30.204 244.573,29.148 C244.811,26.732 244.78,24.121 245.027,21.665 C245.136,20.579 245.504,16.269 245.707,15.542 C245.882,14.915 246.748,13.846 247.294,13.501 C248.533,12.718 254.714,12.778 255.798,12.821 C257.156,12.874 259.008,13.244 260.107,13.388 C261.545,13.576 264.059,14.358 264.643,14.748 C266.5,15.358 267.137,17.81 267.137,17.81 L267.137,17.81 Z M324.851,20.077 C325.119,20.454 325.266,20.937 325.53,21.325 C326.299,22.45 327.242,23.652 327.799,24.953 C328.197,25.885 328.751,28.063 329.84,28.014 C331.624,27.934 330.664,23.278 330.52,21.438 C330.28,18.373 330.593,10.102 329.726,9.759 C328.363,9.22 328.035,11.751 326.664,12.14 C325.089,12.588 323.357,11.708 322.355,11.347 C319.417,9.358 312.265,8.285 312.265,8.285 C312.265,8.285 304.334,7.608 302.173,8.285 C299.667,8.358 296.316,9.603 295.824,9.759 C295.122,9.981 289.368,12.705 288.907,13.047 C288.515,13.339 285.883,15.333 285.052,15.996 C284.238,16.644 280.782,21.126 280.403,21.665 C279.883,22.422 278.135,25.066 278.135,25.066 C278.135,25.066 275.488,30.913 275.333,31.756 C274.712,34.919 274.28,39.239 274.28,39.239 C274.28,39.239 274.399,45.728 275.074,48.007 C275.75,50.286 276.85,54.626 278.526,56.639 C280.203,58.651 282.489,61.566 283.578,62.483 C284.667,63.4 288.676,65.379 288.794,65.432 C289.409,65.704 292.401,66.887 293.329,67.133 C293.859,67.273 296.182,67.719 296.73,67.813 C299.247,68.243 302.425,68.248 304.895,67.926 C305.535,67.843 310.995,66.472 311.357,66.339 C312.722,65.837 316.249,64.087 316.913,63.845 C318.8,62.761 320.775,61.386 322.583,59.763 C323.411,59.018 324.27,58.189 325.077,57.381 C325.939,56.52 327.717,54.223 327.912,53.866 C328.321,53.115 329.492,52.043 328.705,51.145 C327.379,50.833 326.479,52.083 325.758,52.733 C324.291,54.053 319.852,57.291 319.067,57.722 C318.286,58.151 315.029,59.624 314.192,59.989 C313.363,60.351 308.925,61.731 308.296,61.804 C306.88,61.965 304.546,62.038 303.193,61.804 C302.804,61.735 300.974,61.245 300.586,61.123 C300.129,60.979 297.932,59.595 297.411,59.309 C295.176,58.081 291.618,53.6 290.268,51.145 C288.917,48.691 288.195,44.185 288.113,43.775 C287.728,41.842 287.893,33.92 288.113,32.776 C288.194,32.355 288.576,29.57 288.794,28.695 C288.885,28.327 289.354,26.724 289.474,26.313 C289.581,25.95 290.733,23.163 290.948,22.798 C291.692,21.537 292.396,20.339 293.103,19.171 C294.093,17.532 295.321,16.005 296.617,15.088 C297.468,14.486 301.083,12.387 302.4,12.027 C302.836,11.908 304.989,11.444 305.461,11.347 C307.033,11.021 310.09,10.975 311.925,11.233 C315.167,11.608 319.181,14.295 319.181,14.295 C319.181,14.295 323.243,17.828 324.851,20.077 L324.851,20.077 Z M216.227,11.233 C215.723,11.139 213.045,9.999 212.712,9.873 C212.289,9.712 210.465,9.074 209.991,8.965 C209.399,8.83 206.735,8.372 206.135,8.285 C204.477,8.047 198.164,8.914 197.631,9.079 C196.945,9.292 193.75,10.678 193.096,11.347 C192.35,11.923 188.953,15.103 188.107,16.222 C187.573,16.929 186.229,20.038 185.953,20.758 C185.125,22.914 184.534,27.144 185.272,30.168 C185.536,31.25 186.037,32.438 186.406,33.23 C186.892,34.27 189.356,37.332 189.694,37.652 C190.106,38.041 192.908,40.067 193.209,40.26 C194.61,41.152 196.296,41.748 197.745,42.527 C199.022,43.064 202.92,44.451 203.527,44.682 C203.864,44.81 205.615,45.483 206.135,45.702 C207.002,46.069 209.046,47.139 209.31,47.29 C209.867,47.608 210.897,48.084 210.897,48.084 C210.897,48.084 213.25,49.442 213.505,51.825 C213.842,53.168 213.802,56.082 213.392,57.381 C213.316,57.623 212.271,59.462 212.145,59.65 C211.999,59.867 208.833,64.275 204.662,64.864 C202.918,64.981 200.843,65.218 199.219,64.864 C198.853,64.785 197.006,64.313 196.611,64.185 C196.308,64.086 193.611,62.516 193.096,62.144 C192.578,61.77 191.951,61.497 191.509,61.123 C189.816,59.691 188.686,57.573 187.427,56.02 C186.5,54.422 185.613,51.599 185.613,51.599 C185.613,51.599 184.515,48.069 182.324,49.104 C181.792,50.65 182.382,51.941 182.665,53.413 C182.883,54.552 184.365,64.638 184.365,64.638 C184.365,64.638 185.535,65.406 186.945,65.772 C187.409,65.893 189.219,66.212 189.694,66.339 C190.237,66.483 192.274,67.023 192.756,67.133 C193.286,67.254 195.431,67.704 195.931,67.813 C197.576,68.169 199.458,68.153 201.26,68.153 C202.8,68.153 204.434,68.233 205.795,67.926 C206.336,67.805 208.304,67.164 208.743,67.019 C209.569,66.747 210.416,66.216 211.125,65.772 C213.36,64.37 215.539,62.758 217.134,60.896 C217.348,60.619 221.667,56.275 221.896,51.031 C222.018,48.253 222.024,44.756 221.442,42.868 C221.038,41.554 220.785,41.055 220.195,40.146 C219.46,39.015 218.645,37.607 217.814,36.745 C216.018,34.88 202.919,29.719 202.621,29.602 C202.198,29.419 196,27.358 194,24.358 C193.313,22.608 192.551,22.514 192.869,19.624 C193.188,16.733 195.495,14.354 196.725,13.501 C197.646,12.862 198.774,12.146 199.559,11.914 C200.019,11.777 201.944,11.395 202.394,11.347 C205.088,11.056 207.542,11.886 209.083,12.594 C210.226,13.119 211.177,13.61 212.145,14.295 C213.233,15.064 214.754,16.352 215.546,17.243 C215.728,17.446 216.788,19.211 216.907,19.397 C217.931,20.994 220.313,26.891 221.669,26.313 C222.257,25.335 221.79,17.07 221.896,14.408 C221.952,13.001 222.242,11.694 221.896,10.553 C219.702,9.945 218.771,11.71 216.227,11.233 L216.227,11.233 Z M0,74.843 L0,1.142 L339.023,1.142 C340.946,1.142 342.993,0.923 344.353,1.255 C345.377,1.505 346.009,2.196 346.961,2.73 C347.971,2.004 348.155,1.506 349.229,1.255 C351.336,0.764 353.087,1.481 353.99,2.389 C356.486,4.895 354.694,10.182 352.403,11.687 C351.583,12.226 351.165,12.084 351.043,12.707 C350.951,13.171 351.469,13.873 351.723,14.521 C351.862,14.877 351.802,15.247 351.949,15.542 C352.1,15.842 352.386,16.111 352.517,16.335 C352.855,16.916 353.142,17.42 353.424,17.923 C353.746,18.499 353.895,19.219 354.444,19.51 C354.908,18.515 355.409,17.663 355.805,16.789 C355.935,16.501 356.916,14.584 357.278,13.955 C357.758,13.123 358.357,12.529 358.526,11.573 C358.711,10.523 358.969,9.306 358.979,8.172 C358.991,6.941 358.551,5.686 358.753,4.43 C358.984,2.988 359.962,1.614 361.021,1.255 C363.188,0.521 365.992,1.372 367.03,2.956 C367.115,3.702 367.715,6.963 367.37,7.945 C366.766,9.669 366.277,10.945 364.989,11.8 C364.346,12.227 364.217,12.037 363.969,12.821 C363.263,15.049 364.645,17.093 365.216,19.171 C365.821,21.372 365.169,24.779 365.669,26.427 C365.753,26.704 366.123,27.334 366.123,27.334 C366.123,27.334 366.234,28.023 366.803,28.014 C367.633,27.148 369.905,19.023 370.092,18.49 C370.44,17.489 373.636,13.75 374.74,12.934 C375.861,12.106 376.903,11.238 377.688,9.986 C377.657,8.689 377.072,7.46 377.008,6.357 C376.94,5.197 377.171,4.513 377.461,3.863 C378.013,2.63 378.591,1.786 379.843,1.255 C380.596,0.936 382.711,0.993 383.584,1.255 C383.945,1.363 385.353,2.288 385.398,2.389 C386.705,5.272 386.406,9.725 383.811,11.006 C382.994,11.41 382.591,11.239 382.337,11.8 C382.193,12.117 382.189,13.305 382.224,13.728 C382.299,14.66 382.899,15.786 383.131,16.902 C383.369,18.052 383.568,19.308 384.378,19.737 C384.739,19.538 385.148,18.339 385.285,18.036 C385.41,17.761 386.344,13.7 386.646,12.367 C386.93,11.113 387.048,9.887 387.439,8.626 C388.007,6.798 388.2,4.914 389.026,3.41 C389.625,2.321 390.365,1.756 391.295,1.142 C394.993,0.419 397.389,2.243 397.758,4.884 C398.127,7.529 397.1,10.386 395.604,11.347 C395.029,11.715 394.057,11.621 393.902,12.594 C393.647,13.752 393.77,14.778 394.016,15.655 C394.482,17.322 395.581,19.077 396.283,20.531 C396.576,21.135 396.915,21.846 396.964,22.345 C397.091,23.656 396.664,23.966 396.396,24.839 C396.22,25.417 396.104,26.197 396.17,26.88 C396.285,28.075 397.329,28.817 398.211,29.715 C398.917,30.433 399.791,31.349 400.592,31.87 C402.362,33.021 405.487,33.984 405.694,35.838 C405.869,37.404 404.592,38.877 402.52,38.219 C401.911,38.025 401.773,37.173 401.272,36.518 C400.395,35.373 399.035,34.587 397.984,33.91 C397.39,33.528 396.804,32.78 396.057,33.003 C395.716,34.095 396.096,35.183 396.17,36.178 C396.249,37.235 396.188,38.1 396.51,38.673 C396.834,39.247 397.038,39.923 397.304,40.714 C397.483,41.248 399.363,46.834 399.458,47.063 C399.548,47.278 401.5,51.791 401.953,53.186 C402.248,54.097 402.298,55.202 402.974,56.02 C403.168,56.816 403.191,57.23 403.767,57.268 C404.597,57.322 407.624,52.576 408.756,51.145 C409.65,50.014 409.992,49.029 410.457,47.517 C410.684,46.778 410.719,46.009 410.91,45.249 C411.101,44.493 411.362,43.905 411.478,43.095 C411.585,42.333 411.67,41.55 411.817,40.714 C411.518,39.733 411.287,36.233 411.478,35.611 C411.648,35.051 411.574,34.385 411.704,33.91 C411.979,32.904 412.984,31.64 411.931,30.735 C411.512,31.42 411.409,32.35 411.137,32.89 C410.727,33.704 410.802,34.479 410.57,35.384 C410.437,35.907 410.195,36.438 410.116,36.972 C410.019,37.635 410.246,38.353 410.116,39.013 C409.916,40.036 408.902,41.158 407.849,41.167 C406.981,41.175 405.503,40.102 405.468,39.126 C405.429,38.037 406.818,37.721 406.941,36.518 C407.168,34.302 406.884,31.927 406.941,29.829 C406.994,27.934 407.408,26.202 408.075,24.386 C409.366,20.874 410.688,17.808 412.157,15.315 C412.618,14.33 413.359,13.796 414.198,13.047 C414.803,12.508 415.979,11.801 416.239,10.666 C416.677,8.762 415.317,7.03 415.559,5.224 C415.631,4.688 416.079,3.469 416.353,2.956 C416.945,1.846 417.738,1.352 418.733,1.028 C419.896,0.652 420.545,0.741 421.795,1.142 C423.211,1.596 424.128,2.157 424.743,3.183 C424.872,5.097 425.014,6.341 424.63,7.945 C424.394,8.935 423.835,9.665 423.383,10.213 C422.901,10.796 421.706,11.196 421.455,11.914 C421.212,12.61 421.445,14.215 421.342,15.315 C421.215,16.667 421.14,17.976 421.229,19.057 C421.425,21.456 421.485,24.021 422.476,25.52 C423.126,25.591 428.333,21.144 428.938,21.211 C429.263,21.247 429.554,21.763 429.959,22.231 C431.09,23.538 431.79,24.712 432.794,25.86 C433.514,26.683 434.009,27.302 434.722,28.241 C435.363,29.087 436.355,29.882 436.422,30.849 C436.486,31.777 434.941,32.651 434.268,33.23 C433.975,33.481 433.539,33.954 433.134,34.25 C432.501,34.714 431.736,35.066 431.66,35.384 C431.378,36.567 431.353,37.175 430.412,37.879 C429.674,38.433 428.751,38.516 427.918,38.219 C427.299,38.771 426.939,39.584 425.877,39.693 C425.166,40.278 424.758,41.205 423.836,41.167 C422.814,41.125 422.654,39.822 421.795,39.807 C422.215,41.628 422.277,43.497 422.022,45.249 C421.778,46.918 421.55,48.702 421.568,50.578 C421.581,51.858 421.689,53.217 421.568,54.547 C421.479,55.538 421.201,55.546 421.002,56.134 C420.588,57.355 420.665,58.802 420.435,59.876 C420.292,60.539 420.293,61.135 420.208,61.804 C420.057,62.987 419.583,64.101 419.414,65.318 C419.253,66.477 418.999,68.384 419.188,69.4 C419.338,70.21 420.639,70.837 421.342,71.328 C421.663,71.552 421.856,71.668 422.136,71.781 C423.234,72.228 425.472,72.401 425.311,73.709 C425.157,74.949 421.75,74.843 419.641,74.843 C418.074,74.843 414.108,75.181 413.404,74.389 C412.463,73.33 413.687,72.187 413.064,70.534 C411.993,70.124 409.231,71.723 408.529,72.008 C407.966,72.237 407.431,72.691 406.828,73.028 C406.334,73.305 405.514,73.445 404.9,73.822 C404.556,74.034 404.464,74.341 404.221,74.503 C403.107,75.242 400.52,74.253 399.799,73.709 C398.717,72.939 398.331,71.787 397.53,70.421 C397.283,69.997 396.881,69.148 396.51,68.606 C395.995,67.853 395.404,67.561 395.49,66.792 C395.562,66.153 396.56,65.531 397.304,64.979 C397.978,64.478 399.106,64.095 399.231,63.277 C399.354,62.476 398.616,61.759 398.324,61.123 C398.245,60.95 391.553,47.138 390.728,47.063 C390.104,47.316 390.31,47.96 390.16,48.424 C389.845,49.412 389.368,50.372 388.913,51.259 C388.699,51.677 388.396,52.075 388.12,52.506 C387.055,54.164 386.109,55.803 384.945,57.381 C384.07,58.566 383.363,59.869 382.677,61.123 C381.559,63.168 379.799,65.664 380.183,68.606 C381.93,68.918 385.19,67.902 385.398,69.627 C385.601,71.305 383.228,70.828 383.018,72.349 C384.227,72.573 385.104,72.722 384.831,73.936 C384.543,75.227 381.528,74.843 379.275,74.843 C377.446,74.843 373.961,75.197 373.38,74.389 C372.64,73.36 373.58,72.601 373.039,71.214 C372.348,71.083 371.61,71.679 370.998,72.008 C370.306,72.38 369.586,72.769 369.071,73.255 C367.733,73.733 366.104,74.661 364.422,74.843 C363.206,74.974 362.713,74.734 361.814,74.389 C361.072,74.78 360.751,74.922 360,74.956 C356.354,75.12 352.594,74.771 348.889,74.843 C345.281,74.912 341.689,74.843 338.116,74.843 C225.997,74.842 111.602,74.843 0,74.843 L0,74.843 Z" id="Fill-3" fill="#FFFFFF" sketch:type="MSShapeGroup" mask="url(#mask-2)"></path>
            </g>
            <path d="M461.48,34.591 C461.272,35.419 460.015,36.416 458.646,35.725 C457.661,32.816 456.149,30.435 453.43,29.262 C453.072,30.334 454.449,35.431 454.563,35.951 C454.677,36.463 454.58,37.075 454.677,37.652 C454.812,38.448 455.302,40.786 455.357,41.167 C455.463,41.892 455.818,42.574 455.925,43.321 C456.232,45.498 456.477,49.294 456.151,51.825 C455.959,53.32 453.792,54.221 453.09,55.454 C453.177,56.317 451.489,64.146 451.389,65.432 C451.293,66.667 450.831,68.008 450.936,68.833 C451.069,69.89 454.145,71.824 454.904,72.234 C455.603,72.612 456.632,72.8 456.604,73.936 C455.666,74.942 453.422,74.616 451.502,74.616 C449.545,74.616 447.442,74.868 446.287,74.162 C445.539,72.849 446.486,71.581 446.74,70.534 C447.297,68.235 446.853,65.261 446.74,62.71 C446.692,61.616 446.937,60.609 446.627,59.65 C445.555,59.715 443.176,61.628 442.771,61.917 C441.993,62.472 441.401,63.289 440.73,63.958 C440.276,66.449 441.757,69.564 440.504,71.101 C439.298,71.211 439.033,70.38 438.576,69.74 C438.24,68.981 437.593,68.531 437.329,67.699 C436.973,67.092 436.412,66.474 435.969,65.772 C435.527,65.072 434.908,64.192 434.948,63.504 C435.032,62.064 436.894,61.791 438.01,61.01 C440.99,58.169 443.343,54.702 446.74,52.279 C447.587,50.571 448.481,49.317 447.647,47.177 C447.463,46.703 446.773,45.193 446.627,44.909 C446.146,43.974 445.549,42.351 445.039,41.054 C444.097,38.654 442.903,34.239 444.586,31.416 C444.586,30.962 445.849,28.289 445.039,27.561 C444.365,27.605 443.246,32.079 442.998,32.437 C443.178,32.824 442.832,33.191 442.658,33.684 C442.526,34.056 441.777,35.51 441.638,35.838 C441.451,36.277 441.502,36.738 441.298,37.085 C440.574,38.314 438.888,38.457 438.01,36.972 C438.3,35.675 439.384,35.171 439.823,34.024 C440.269,28.799 441.637,24.498 443.679,20.871 C443.466,19.935 444.455,17.132 444.586,16.563 C444.688,16.121 445.399,14.028 445.72,13.388 C446.081,12.665 447.265,9.799 447.534,8.852 C448.001,7.209 447.822,5.284 448.441,3.863 C448.783,3.077 450.107,1.51 450.936,1.142 C451.437,0.919 455.188,1.326 455.925,2.389 C456.571,3.322 457.08,5.472 456.718,7.491 C456.596,8.174 456.043,9.215 455.584,9.646 C455.125,10.077 453.318,10.372 453.09,11.006 C452.839,11.702 453.464,12.261 453.771,13.274 C453.882,13.644 454.27,15.023 454.45,15.429 C454.62,15.807 456.589,18.847 456.038,20.984 C455.778,21.992 454.652,22.875 454.677,23.933 C454.7,24.89 455.74,25.68 456.265,26.427 C457.116,27.639 462.016,32.455 461.48,34.591" id="Fill-5" fill="#FFFFFF" sketch:type="MSShapeGroup"></path>
            <path d="M73.587,42.981 C73.355,44.965 67.454,44.229 64.856,44.229 L61.115,44.229 C59.133,44.229 57.363,44.539 56.806,43.321 C56.682,42.274 56.877,41.682 57.26,40.941 C58.278,38.97 64.124,29.096 64.517,27.674 C65.245,27.163 65.264,26.328 66.444,26.54 C67.361,26.706 73.638,42.55 73.587,42.981" id="Fill-6" fill="#FFFFFF" sketch:type="MSShapeGroup"></path>
            <path d="M334,67.858 C334,70.252 332.06,72.192 329.666,72.192 C327.273,72.192 325.333,70.252 325.333,67.858 C325.333,65.466 327.273,63.525 329.666,63.525 C332.06,63.525 334,65.466 334,67.858 L334,67.858 Z" id="Stroke-7" stroke="#FFFFFF" stroke-width="0.5" sketch:type="MSShapeGroup"></path>
            <text id="c" sketch:type="MSTextLayer" font-family="Helvetica" font-size="10" font-weight="260" fill="#FFFFFF">
                <tspan x="327" y="70.1914">c</tspan>
            </text>
        </g>
    </g>
</svg>